<svg width="80" height="80" viewBox="0 0 80 80" fill="none" xmlns="http://www.w3.org/2000/svg">
<path d="M36.5 41.5L21 20.5V14H55.5V20.5L43.5 41.5L55.5 54.5V68H26.5L21 59L36.5 41.5Z" fill="white"/>
<path d="M17.1967 7.1967L18.9645 8.96447L17.1967 7.1967C15.7902 8.60322 15 10.5109 15 12.5L15 23.75L15 23.7554C15.0025 24.9176 15.2743 26.0634 15.7941 27.103C16.3138 28.1425 17.0674 29.0474 17.9957 29.7467L18.0001 29.75L31.6675 40L18.0001 50.25L17.9956 50.2533C17.0674 50.9526 16.3138 51.8575 15.7941 52.897C15.2743 53.9366 15.0025 55.0824 15 56.2446V56.25V67.5C15 69.4891 15.7902 71.3968 17.1967 72.8033L18.9645 71.0355L17.1967 72.8033C18.6032 74.2098 20.5109 75 22.5 75H57.5C59.4891 75 61.3968 74.2098 62.8033 72.8033C64.2098 71.3968 65 69.4891 65 67.5L65 56.3625L65 56.3567C64.9973 55.1995 64.7279 54.0584 64.2126 53.0222C63.6974 51.986 62.9501 51.0825 62.029 50.382L62.023 50.3775L48.293 40L62.0231 29.6225L62.029 29.618C62.9501 28.9175 63.6974 28.014 64.2126 26.9778C64.7279 25.9416 64.9973 24.8005 65 23.6433V23.6375V12.5C65 10.5109 64.2098 8.60322 62.8033 7.1967L61.0355 8.96447L62.8033 7.1967C61.3968 5.79018 59.4891 5 57.5 5H22.5C20.5109 5 18.6032 5.79018 17.1967 7.1967ZM45 50.0484L55 57.6067V65H25V57.5L35 50V52.5C35 53.8261 35.5268 55.0979 36.4645 56.0355C37.4022 56.9732 38.6739 57.5 40 57.5C41.3261 57.5 42.5978 56.9732 43.5355 56.0355C44.4732 55.0978 45 53.8261 45 52.5V50.0484ZM25 15H55V22.3931L54.8585 22.5H25V15Z" fill="black" stroke="white" stroke-width="5"/>
</svg>
