<svg width="28" height="28" viewBox="0 0 28 28" fill="none" xmlns="http://www.w3.org/2000/svg">
<g clip-path="url(#clip0_430_34611)">
<path fill-rule="evenodd" clip-rule="evenodd" d="M14.0099 2C7.36875 2 2 7.40833 2 14.0992C2 19.4475 5.43994 23.9748 10.2121 25.5771C10.8087 25.6976 11.0272 25.3168 11.0272 24.9965C11.0272 24.716 11.0076 23.7545 11.0076 22.7527C7.6667 23.474 6.97099 21.3104 6.97099 21.3104C6.43409 19.9082 5.63858 19.5478 5.63858 19.5478C4.54511 18.8066 5.71823 18.8066 5.71823 18.8066C6.93117 18.8868 7.56763 20.0486 7.56763 20.0486C8.64118 21.8913 10.3711 21.3707 11.0671 21.0501C11.1664 20.2688 11.4847 19.728 11.8228 19.4276C9.15817 19.1471 6.35469 18.1055 6.35469 13.458C6.35469 12.1359 6.8316 11.0543 7.58729 10.213C7.46807 9.91263 7.05039 8.67044 7.70677 7.00787C7.70677 7.00787 8.72083 6.6873 11.0073 8.24981C11.9863 7.98497 12.9958 7.85024 14.0099 7.84911C15.024 7.84911 16.0577 7.98948 17.0123 8.24981C19.299 6.6873 20.3131 7.00787 20.3131 7.00787C20.9695 8.67044 20.5515 9.91263 20.4323 10.213C21.2079 11.0543 21.6652 12.1359 21.6652 13.458C21.6652 18.1055 18.8617 19.1269 16.1772 19.4276C16.6148 19.8081 16.9924 20.5292 16.9924 21.6711C16.9924 23.2936 16.9727 24.5958 16.9727 24.9962C16.9727 25.3168 17.1915 25.6976 17.7879 25.5774C22.56 23.9745 25.9999 19.4475 25.9999 14.0992C26.0196 7.40833 20.6312 2 14.0099 2Z" fill="black"/>
<path fill-rule="evenodd" clip-rule="evenodd" d="M9.69383 27.5128L9.57544 27.4731C4.00707 25.6034 0 20.3259 0 14.0992C0 6.31771 6.25028 0 14.0099 0C21.7457 0 28.0215 6.31447 27.9999 14.1026C27.9985 20.3279 23.9918 25.6034 18.4247 27.4733L18.3059 27.5132L18.1831 27.5379C17.4105 27.6936 16.5016 27.5744 15.7944 26.9164C15.1595 26.3257 14.9727 25.5606 14.9727 24.9962C14.9727 24.8538 14.975 24.6051 14.978 24.2855C14.9795 24.1306 14.9811 23.9591 14.9826 23.7749C14.9875 23.1994 14.9924 22.4745 14.9924 21.6711C14.9924 21.1611 14.8753 20.9614 14.8475 20.9217L13.9907 20.1766L13.1718 20.9044C13.1579 20.925 13.0846 21.0386 13.0511 21.3023L13.0076 21.6447V22.7527C13.0076 23.2415 13.0124 23.7229 13.0173 24.1205C13.0186 24.2318 13.02 24.3392 13.0214 24.4395C13.0246 24.6837 13.0272 24.8855 13.0272 24.9965C13.0272 25.5604 12.8407 26.3257 12.2055 26.9166C11.4978 27.5748 10.5885 27.6935 9.81625 27.5376L9.69383 27.5128ZM9.00762 22.839C9.5359 22.933 10.1931 22.9286 11.0076 22.7527C11.0076 22.9004 11.008 23.0472 11.0087 23.1911C11.0112 23.6855 11.0173 24.1453 11.0218 24.4872C11.0233 24.6007 11.0246 24.7012 11.0256 24.7857C11.0266 24.8751 11.0272 24.9465 11.0272 24.9965C11.0272 25.3168 10.8087 25.6976 10.2121 25.5771C9.53487 25.3497 8.88452 25.0635 8.26702 24.7243C7.1447 24.1079 6.13089 23.3167 5.26175 22.387C4.80767 21.9013 4.39307 21.3777 4.02312 20.8214C3.7167 20.3607 3.4409 19.8775 3.19866 19.3749C2.43068 17.7812 2 15.9916 2 14.0992C2 7.40833 7.36875 2 14.0099 2C20.6312 2 26.0196 7.40833 25.9999 14.0992C25.9999 19.4475 22.56 23.9745 17.7879 25.5774C17.1915 25.6976 16.9727 25.3168 16.9727 24.9962C16.9727 24.8633 16.9749 24.631 16.9778 24.3207C16.9836 23.696 16.9924 22.755 16.9924 21.6711C16.9924 21.5564 16.9886 21.4459 16.9813 21.3396C16.9159 20.3878 16.5708 19.7699 16.1772 19.4276C16.9083 19.3457 17.6482 19.2104 18.3379 18.9629C20.1808 18.3016 21.6652 16.8398 21.6652 13.458C21.6652 12.1359 21.2079 11.0543 20.4323 10.213C20.5515 9.91263 20.9695 8.67044 20.3131 7.00787C20.3131 7.00787 19.299 6.6873 17.0123 8.24981C16.0577 7.98948 15.024 7.84911 14.0099 7.84911C12.9958 7.85024 11.9863 7.98497 11.0073 8.24981C8.72083 6.6873 7.70677 7.00787 7.70677 7.00787C7.0504 8.67044 7.46806 9.91263 7.58729 10.213C6.8316 11.0543 6.35469 12.1359 6.35469 13.458C6.35469 15.117 6.71191 16.3165 7.29252 17.1859C7.76798 17.8979 8.39324 18.3885 9.09481 18.7289C9.28133 18.8193 9.47324 18.8992 9.66916 18.9698C10.3575 19.2177 11.0953 19.351 11.8228 19.4276C11.5411 19.6779 11.2731 20.0952 11.1341 20.6793C11.1063 20.7962 11.0836 20.9198 11.0671 21.0501C10.9587 21.1 10.8254 21.1547 10.6733 21.2046C10.6185 21.2226 10.5613 21.24 10.502 21.2563C9.87939 21.4272 9.02276 21.4794 8.27642 20.8907C8.25423 20.8732 8.23176 20.8548 8.20977 20.8361C8.02655 20.6806 7.85073 20.4848 7.68756 20.2408C7.64676 20.1798 7.60676 20.1157 7.56763 20.0486C7.56763 20.0486 7.41625 19.7722 7.12045 19.4798C6.87659 19.2387 6.53458 18.9867 6.09831 18.8696C6.08202 18.8652 6.0656 18.861 6.04905 18.857C6.01988 18.85 5.9903 18.8436 5.96032 18.8378C5.88236 18.8228 5.80166 18.8121 5.71823 18.8066C5.71823 18.8066 5.35303 18.8066 5.22008 18.9354C5.12291 19.0295 5.14981 19.1923 5.53408 19.4742C5.56635 19.4979 5.60113 19.5224 5.63858 19.5478C5.63858 19.5478 5.64899 19.5525 5.66825 19.563C5.68113 19.57 5.69796 19.5795 5.71827 19.592C5.86645 19.6827 6.19991 19.9264 6.53511 20.4416C6.56187 20.4828 6.58863 20.5256 6.61532 20.5703C6.62017 20.5784 6.62507 20.5866 6.62991 20.5949C6.74063 20.7831 6.84964 21.0024 6.95025 21.2571C6.95721 21.2747 6.96412 21.2925 6.97099 21.3104C6.97099 21.3104 7.36619 22.5395 8.99123 22.8361C8.99668 22.8371 9.00214 22.8381 9.00762 22.839Z" fill="white"/>
</g>
<defs>
<clipPath id="clip0_430_34611">
<rect width="28" height="28" fill="white"/>
</clipPath>
</defs>
</svg>
