<svg width="28" height="28" viewBox="0 0 28 28" fill="none" xmlns="http://www.w3.org/2000/svg">
<path fill-rule="evenodd" clip-rule="evenodd" d="M16.567 9.88624V4.85733C16.567 2.12664 18.8636 0 21.4244 0C23.9929 0 26.2817 2.01526 26.2817 4.99339V22.8177C26.2817 24.3968 25.722 25.729 24.7311 26.6579C23.7742 27.5551 22.5521 27.9472 21.4244 27.9472C19.9658 27.9472 18.6026 27.3018 17.6939 26.1773C17.5568 26.3479 17.4078 26.5086 17.2476 26.6588C16.2907 27.556 15.0686 27.9481 13.9408 27.9481C12.4816 27.9481 11.1178 27.3021 10.2091 26.1766C9.31811 27.2588 7.96811 27.949 6.45731 27.949C3.77525 27.949 1.59998 25.7738 1.59998 23.0917C1.59998 20.4096 3.77526 18.2344 6.45731 18.2344C7.42474 18.2344 8.32624 18.5174 9.0835 19.0051V13.9745C9.0835 11.2438 11.3801 9.11719 13.9408 9.11719C14.8878 9.11719 15.7968 9.39112 16.567 9.88624Z" fill="white"/>
<path fill-rule="evenodd" clip-rule="evenodd" d="M18.567 4.85733V22.8177C18.567 24.8289 19.9532 25.9472 21.4244 25.9472C22.785 25.9472 24.2817 24.9947 24.2817 22.8177V4.99339C24.2817 3.15229 22.9211 2 21.4244 2C19.9277 2 18.567 3.27134 18.567 4.85733ZM11.0835 13.9745V22.8186C11.0835 24.8298 12.4696 25.9481 13.9408 25.9481C15.3015 25.9481 16.7982 24.9957 16.7982 22.8186V14.1106C16.7982 12.2695 15.4375 11.1172 13.9408 11.1172C12.4441 11.1172 11.0835 12.3885 11.0835 13.9745ZM6.45731 25.949C8.0348 25.949 9.31465 24.6692 9.31465 23.0917C9.31465 21.5142 8.0348 20.2344 6.45731 20.2344C4.87982 20.2344 3.59998 21.5142 3.59998 23.0917C3.59998 24.6692 4.87982 25.949 6.45731 25.949Z" fill="black"/>
</svg>
