<svg width="28" height="28" viewBox="0 0 28 28" fill="none" xmlns="http://www.w3.org/2000/svg">
<path d="M12.7318 16.484L5 2H8.53353L13.0816 11.1662C13.1516 11.3294 13.2332 11.4985 13.3265 11.6735C13.4198 11.8484 13.5015 12.0292 13.5714 12.2157C13.6181 12.2857 13.6531 12.3499 13.6764 12.4082C13.6997 12.4665 13.723 12.519 13.7464 12.5656C13.863 12.7988 13.9679 13.0262 14.0612 13.2478C14.1545 13.4694 14.2362 13.6735 14.3061 13.8601C14.4927 13.4636 14.6968 13.0379 14.9184 12.5831C15.1399 12.1283 15.3673 11.656 15.6006 11.1662L20.2187 2H23.5073L15.7055 16.6589V26H12.7318V16.484Z" fill="black"/>
<path fill-rule="evenodd" clip-rule="evenodd" d="M14.3061 13.8601C14.2362 13.6735 14.1545 13.4694 14.0612 13.2478C13.9679 13.0262 13.863 12.7988 13.7464 12.5656C13.723 12.519 13.6997 12.4665 13.6764 12.4082C13.6531 12.3499 13.6181 12.2857 13.5714 12.2157C13.5249 12.0917 13.4733 11.9703 13.4164 11.8514C13.3878 11.7914 13.3578 11.7321 13.3265 11.6735C13.2924 11.6095 13.2599 11.5464 13.2289 11.484C13.1751 11.3757 13.126 11.2698 13.0816 11.1662L8.53353 2H5.00001L12.7318 16.484V26H15.7055V16.6589L23.5073 2H20.2187L15.6006 11.1662C15.5504 11.2715 15.5006 11.376 15.451 11.4797C15.4473 11.4873 15.4436 11.495 15.44 11.5026C15.4376 11.5077 15.4352 11.5127 15.4327 11.5178C15.3954 11.5957 15.3583 11.6732 15.3213 11.7502C15.3213 11.7502 15.3213 11.7502 15.3213 11.7502C15.3154 11.7625 15.3095 11.7747 15.3036 11.787C15.1733 12.0581 15.0449 12.3234 14.9184 12.5831C14.8552 12.7127 14.7935 12.84 14.7332 12.9649C14.5819 13.2782 14.4395 13.5766 14.3061 13.8601ZM14.3452 9.21298L18.9868 0H26.8374L17.7055 17.158V28H10.7318V16.9844L1.66525 0H9.77383L14.3452 9.21298Z" fill="white"/>
</svg>
