<svg width="28" height="28" viewBox="0 0 28 28" fill="none" xmlns="http://www.w3.org/2000/svg">
<g clip-path="url(#clip0_1025_426)">
<path d="M1.99999 14.0002C1.99999 7.54176 7.03184 2.27147 13.4556 2.00041C13.7145 1.99022 13.9427 2.16957 13.9896 2.42432C14.0406 2.67907 13.8938 2.92974 13.6493 3.01534C10.1153 4.25241 7.73903 7.6192 7.73903 11.3916C7.73903 16.2828 11.7172 20.261 16.6084 20.261C20.3808 20.261 23.7476 17.8847 24.9847 14.3507C25.0703 14.1062 25.323 13.9615 25.5757 14.0104C25.8304 14.0573 26.0098 14.2896 25.9996 14.5444C25.7285 20.9682 20.4582 26 13.9998 26C7.38237 26 1.99999 20.6176 1.99999 14.0002Z" fill="black"/>
<path fill-rule="evenodd" clip-rule="evenodd" d="M13.3742 0.00207427L13.377 0.00196319C14.6063 -0.0464334 15.7173 0.80426 15.9537 2.04723C16.1958 3.296 15.4703 4.4969 14.3101 4.90303C14.31 4.90304 14.31 4.90305 14.31 4.90306C11.586 5.85665 9.73903 8.46083 9.73903 11.3916C9.73903 15.1782 12.8218 18.261 16.6084 18.261C19.5392 18.261 22.1434 16.414 23.0969 13.69C23.097 13.69 23.097 13.69 23.097 13.69C23.5092 12.5124 24.7217 11.8125 25.9468 12.0451C27.2013 12.2807 28.0468 13.4047 27.998 14.6243L27.9979 14.6265L27.9978 14.6287C27.6812 22.131 21.5223 28 13.9998 28C6.27781 28 -3.23659e-07 21.7222 1.38801e-08 14.0002C3.42698e-07 6.47773 5.86899 0.318757 13.3713 0.00219314L13.3742 0.00207427ZM25.5757 14.0104C25.323 13.9615 25.0703 14.1062 24.9847 14.3507C24.9673 14.4005 24.9494 14.45 24.9312 14.4993C24.9309 14.5 24.9306 14.5008 24.9303 14.5016C24.7918 14.8753 24.6293 15.2356 24.4449 15.581C24.201 16.0379 23.9188 16.4688 23.6031 16.8702C21.9538 18.9676 19.3915 20.261 16.6084 20.261C11.7172 20.261 7.73903 16.2828 7.73903 11.3916C7.73903 8.60849 9.03242 6.04616 11.1298 4.3969C11.5315 4.08104 11.9627 3.79867 12.4199 3.55465C12.7649 3.37055 13.1246 3.20829 13.4978 3.06994C13.4987 3.06958 13.4997 3.06921 13.5007 3.06884C13.55 3.05059 13.5995 3.03276 13.6493 3.01534C13.8938 2.92975 14.0406 2.67907 13.9896 2.42432C13.9427 2.16957 13.7145 1.99023 13.4556 2.00042C13.4026 2.00265 13.3496 2.00523 13.2967 2.00815C13.2967 2.00815 13.2967 2.00816 13.2967 2.00816C12.8743 2.03148 12.4581 2.07644 12.0491 2.14193C11.4145 2.24358 10.7972 2.3947 10.2013 2.59119C5.41093 4.17078 2 8.68279 2 14.0002C2 20.6176 7.38238 26 13.9998 26C19.3172 26 23.8292 22.5891 25.4088 17.7987C25.6053 17.203 25.7563 16.5859 25.858 15.9514C25.9235 15.5423 25.9685 15.1259 25.9918 14.7033C25.9919 14.7033 25.9919 14.7033 25.9919 14.7033C25.9948 14.6504 25.9974 14.5974 25.9996 14.5444C26.0098 14.2896 25.8304 14.0573 25.5757 14.0104ZM26.8723 15.0115C26.8722 15.0119 26.8721 15.0122 26.872 15.0125C26.8721 15.0122 26.8722 15.0119 26.8723 15.0115ZM12.9875 1.12801C12.9878 1.12789 12.9881 1.12778 12.9885 1.12766L12.9886 1.12763M12.9875 1.12801C12.9878 1.12789 12.9881 1.12778 12.9885 1.12766ZM25.9999 14.5444L25.9999 14.5444L25.9999 14.5444Z" fill="white"/>
</g>
<defs>
<clipPath id="clip0_1025_426">
<rect width="28" height="28" fill="white"/>
</clipPath>
</defs>
</svg>
