<?xml version="1.0" encoding="UTF-8"?>
<!DOCTYPE svg PUBLIC "-//W3C//DTD SVG 1.1//EN" "http://www.w3.org/Graphics/SVG/1.1/DTD/svg11.dtd">
<svg xmlns="http://www.w3.org/2000/svg" version="1.1" width="176px" height="168px" style="shape-rendering:geometricPrecision; text-rendering:geometricPrecision; image-rendering:optimizeQuality; fill-rule:evenodd; clip-rule:evenodd" xmlns:xlink="http://www.w3.org/1999/xlink">
<g><path style="opacity:0.985" fill="#252422" d="M 69.5,-0.5 C 78.1667,-0.5 86.8333,-0.5 95.5,-0.5C 125.461,2.98109 148.628,17.3144 165,42.5C 170.022,51.7418 173.522,61.4085 175.5,71.5C 175.5,80.1667 175.5,88.8333 175.5,97.5C 167.167,135.833 143.833,159.167 105.5,167.5C 96.8333,167.5 88.1667,167.5 79.5,167.5C 49.5388,164.019 26.3721,149.686 10,124.5C 4.97807,115.258 1.47807,105.592 -0.5,95.5C -0.5,86.8333 -0.5,78.1667 -0.5,69.5C 7.83333,31.1667 31.1667,7.83333 69.5,-0.5 Z"/></g>
<g><path style="opacity:1" fill="#fdefcc" d="M 111.5,8.5 C 126.604,11.7157 139.271,19.0491 149.5,30.5C 149.695,33.7787 148.195,35.7787 145,36.5C 122.632,15.6051 96.7984,9.77173 67.5,19C 35.9263,33.3068 21.093,57.8068 23,92.5C 24.6825,103.548 28.3491,113.881 34,123.5C 37.6259,127.927 41.1259,132.427 44.5,137C 43.7787,140.195 41.7787,141.695 38.5,141.5C 27.0491,131.271 19.7157,118.604 16.5,103.5C 15.9989,96.9893 15.3323,90.4893 14.5,84C 15.1948,77.4933 15.8615,70.9933 16.5,64.5C 19.1475,58.2431 21.8141,51.9098 24.5,45.5C 25.7232,41.9505 27.7232,38.9505 30.5,36.5C 35.5,32.1667 40.1667,27.5 44.5,22.5C 46.9505,19.7232 49.9505,17.7232 53.5,16.5C 59.9098,13.8141 66.2431,11.1475 72.5,8.5C 85.4836,6.0728 98.4836,6.0728 111.5,8.5 Z"/></g>
<g><path style="opacity:1" fill="#dbbd6e" d="M 111.5,8.5 C 98.4836,6.0728 85.4836,6.0728 72.5,8.5C 78.4781,6.13655 84.8114,5.13655 91.5,5.5C 97.2065,5.56859 102.873,6.06859 108.5,7C 109.737,7.23209 110.737,7.73209 111.5,8.5 Z"/></g>
<g><path style="opacity:1" fill="#efca65" d="M 34.5,144.5 C 17.0748,131.189 6.90815,113.522 4,91.5C 2.26505,47.628 22.2651,18.9613 64,5.5C 64.5,5.66667 65,5.83333 65.5,6C 30.8192,20.1915 12.1525,46.0249 9.5,83.5C 9.86496,107.214 18.1983,127.547 34.5,144.5 Z"/></g>
<g><path style="opacity:1" fill="#ddbd6a" d="M 72.5,8.5 C 66.2431,11.1475 59.9098,13.8141 53.5,16.5C 59.0999,12.2938 65.4332,9.62715 72.5,8.5 Z"/></g>
<g><path style="opacity:1" fill="#fbd46a" d="M 149.5,30.5 C 171.749,54.6251 177.249,82.2917 166,113.5C 149.218,149.15 121.051,165.65 81.5,163C 64.6458,160.573 50.3125,153.406 38.5,141.5C 41.7787,141.695 43.7787,140.195 44.5,137C 41.1259,132.427 37.6259,127.927 34,123.5C 28.3491,113.881 24.6825,103.548 23,92.5C 21.093,57.8068 35.9263,33.3068 67.5,19C 96.7984,9.77173 122.632,15.6051 145,36.5C 148.195,35.7787 149.695,33.7787 149.5,30.5 Z"/></g>
<g><path style="opacity:1" fill="#3c3a34" d="M 85.5,23.5 C 120.496,22.3961 143.33,38.3961 154,71.5C 158.915,109.185 143.415,134.018 107.5,146C 69.8524,150.93 45.0191,135.43 33,99.5C 28.2949,69.9196 38.4615,47.0863 63.5,31C 70.578,27.3637 77.9113,24.8637 85.5,23.5 Z"/></g>
<g><path style="opacity:1" fill="#f9c845" d="M 135.5,46.5 C 131.846,43.4133 129.18,44.08 127.5,48.5C 129.716,52.8916 132.549,56.8916 136,60.5C 146.304,81.4779 144.304,101.145 130,119.5C 111.489,136.189 90.9892,139.022 68.5,128C 64.8916,124.549 60.8916,121.716 56.5,119.5C 52.08,121.18 51.4133,123.846 54.5,127.5C 44.8804,119.957 39.0471,109.957 37,97.5C 32.4123,67.5073 43.5789,45.6739 70.5,32C 91.0529,24.3252 110.386,26.6585 128.5,39C 131.117,41.4423 133.45,43.9423 135.5,46.5 Z"/></g>
<g><path style="opacity:1" fill="#f1d27f" d="M 44.5,22.5 C 40.1667,27.5 35.5,32.1667 30.5,36.5C 34.1667,30.8333 38.8333,26.1667 44.5,22.5 Z"/></g>
<g><path style="opacity:1" fill="#f5b611" d="M 135.5,46.5 C 149.642,61.0509 154.476,78.3843 150,98.5C 141.574,127.081 122.407,142.081 92.5,143.5C 77.4989,143.398 64.8322,138.064 54.5,127.5C 51.4133,123.846 52.08,121.18 56.5,119.5C 60.8916,121.716 64.8916,124.549 68.5,128C 90.9892,139.022 111.489,136.189 130,119.5C 144.304,101.145 146.304,81.4779 136,60.5C 132.549,56.8916 129.716,52.8916 127.5,48.5C 129.18,44.08 131.846,43.4133 135.5,46.5 Z"/></g>
<g><path style="opacity:1" fill="#dbbc68" d="M 24.5,45.5 C 21.8141,51.9098 19.1475,58.2431 16.5,64.5C 17.6272,57.4332 20.2938,51.0999 24.5,45.5 Z"/></g>
<g><path style="opacity:1" fill="#060402" d="M 68.5,61.5 C 78.6879,61.8368 82.5213,66.8368 80,76.5C 74.2951,83.0456 68.6284,83.0456 63,76.5C 60.3277,69.845 62.1611,64.845 68.5,61.5 Z"/></g>
<g><path style="opacity:1" fill="#060402" d="M 114.5,61.5 C 124.688,61.8368 128.521,66.8368 126,76.5C 120.295,83.0456 114.628,83.0456 109,76.5C 106.328,69.845 108.161,64.845 114.5,61.5 Z"/></g>
<g><path style="opacity:1" fill="#eeeeee" d="M 71.5,65.5 C 77.4877,65.664 78.821,68.164 75.5,73C 69.4034,73.1475 68.0701,70.6475 71.5,65.5 Z"/></g>
<g><path style="opacity:1" fill="#eeeeee" d="M 117.5,65.5 C 123.488,65.664 124.821,68.164 121.5,73C 115.403,73.1475 114.07,70.6475 117.5,65.5 Z"/></g>
<g><path style="opacity:1" fill="#dec174" d="M 16.5,64.5 C 15.8615,70.9933 15.1948,77.4933 14.5,84C 15.3323,90.4893 15.9989,96.9893 16.5,103.5C 15.7321,102.737 15.2321,101.737 15,100.5C 13.5687,91.5411 13.2354,82.5411 14,73.5C 14.2037,70.2026 15.037,67.2026 16.5,64.5 Z"/></g>
<g><path style="opacity:1" fill="#ec8f4b" d="M 52.5,83.5 C 55.8499,83.335 59.1832,83.5017 62.5,84C 65.3192,84.5736 67.6525,85.9069 69.5,88C 69.1802,89.6532 68.1802,90.6532 66.5,91C 62.5,91.6667 58.5,91.6667 54.5,91C 52.5249,90.022 50.8582,88.6887 49.5,87C 50.0707,85.4009 51.0707,84.2342 52.5,83.5 Z"/></g>
<g><path style="opacity:1" fill="#ec8f4b" d="M 122.5,83.5 C 126.514,83.3345 130.514,83.5012 134.5,84C 136.18,84.3468 137.18,85.3468 137.5,87C 132.597,91.1357 126.931,92.469 120.5,91C 118.82,90.6532 117.82,89.6532 117.5,88C 119.043,86.2871 120.709,84.7871 122.5,83.5 Z"/></g>
<g><path style="opacity:1" fill="#0e0a03" d="M 81.5,93.5 C 86.1048,95.0347 90.7715,96.3681 95.5,97.5C 100.572,97.0238 105.405,95.6904 110,93.5C 111.28,93.6135 112.113,94.2801 112.5,95.5C 102.832,108.018 92.3323,108.685 81,97.5C 80.4209,96.0715 80.5876,94.7382 81.5,93.5 Z"/></g>
<g><path style="opacity:1" fill="#8b7743" d="M 34.5,144.5 C 36.5441,145.031 38.2107,146.198 39.5,148C 37.2285,147.923 35.5618,146.757 34.5,144.5 Z"/></g>
</svg>
