<svg width="28" height="28" viewBox="0 0 28 28" fill="none" xmlns="http://www.w3.org/2000/svg">
<path fill-rule="evenodd" clip-rule="evenodd" d="M23.3767 6.00153C24.4093 6.2775 25.2224 7.09079 25.4984 8.12334C26 9.99502 26 13.9 26 13.9C26 13.9 26 17.8051 25.4984 19.6767C25.2224 20.7091 24.4093 21.5225 23.3767 21.7984C21.5049 22.3001 13.9999 22.3001 13.9999 22.3001C13.9999 22.3001 6.49499 22.3001 4.62332 21.7984C3.59078 21.5225 2.77749 20.7091 2.50153 19.6767C2 17.8051 2 13.9 2 13.9C2 13.9 2 9.99502 2.50153 8.12334C2.77749 7.09079 3.59078 6.2775 4.62332 6.00153C6.49499 5.5 13.9999 5.5 13.9999 5.5C13.9999 5.5 21.5049 5.5 23.3767 6.00153ZM17.8351 13.9003L11.6 17.5003V10.3003L17.8351 13.9003Z" fill="black"/>
<path fill-rule="evenodd" clip-rule="evenodd" d="M13.9999 5.5C13.9999 5.5 21.5049 5.5 23.3767 6.00153C24.4093 6.2775 25.2224 7.0908 25.4984 8.12334C26 9.99502 26 13.9 26 13.9C26 13.9 26 17.8051 25.4984 19.6767C25.2224 20.7091 24.4093 21.5225 23.3767 21.7984C21.5049 22.3001 13.9999 22.3001 13.9999 22.3001C13.9999 22.3001 6.49499 22.3001 4.62332 21.7984C3.59078 21.5225 2.77749 20.7091 2.50153 19.6767C2 17.8051 2 13.9 2 13.9C2 13.9 2 9.99502 2.50153 8.12334C2.77749 7.0908 3.59078 6.2775 4.62332 6.00153C6.49499 5.5 13.9999 5.5 13.9999 5.5ZM4.10636 4.0695C4.10613 4.06956 4.1059 4.06962 4.10566 4.06969C2.38295 4.53059 1.03058 5.88297 0.569679 7.60569C0.569618 7.60592 0.569556 7.60615 0.569495 7.60637L0.569345 7.60694C0.257921 8.76998 0.127682 10.4072 0.065369 11.6101C0.0326496 12.2417 0.0163683 12.8103 0.00822926 13.2209C0.00415077 13.4267 0.00209522 13.5939 0.0010582 13.7108C0.000539589 13.7693 0.00027504 13.8152 0.00014019 13.8472C7.28607e-05 13.8632 3.77655e-05 13.8758 1.9455e-05 13.8846L0 13.8997C0 13.8997 0 13.9 2 13.9C0 13.9 0 13.9003 0 13.9003L1.9455e-05 13.9153C3.77655e-05 13.9242 7.28607e-05 13.9367 0.00014019 13.9527C0.00027504 13.9847 0.000539589 14.0307 0.0010582 14.0892C0.00209522 14.2061 0.00415077 14.3733 0.00822907 14.579C0.0163683 14.9896 0.0326496 15.5583 0.0653688 16.1899C0.127704 17.3933 0.258012 19.0313 0.569685 20.1944C1.03054 21.9168 2.38276 23.2693 4.10552 23.7302C4.10577 23.7303 4.10603 23.7303 4.10628 23.7304C4.10654 23.7305 4.10679 23.7305 4.10705 23.7306C4.78287 23.9115 5.78182 24.0138 6.73247 24.0831C7.74009 24.1567 8.88575 24.2047 9.9541 24.2365C11.0257 24.2683 12.0356 24.2842 12.7767 24.2921C13.1476 24.2961 13.4521 24.2981 13.6644 24.2991C13.7706 24.2996 13.8538 24.2998 13.9108 24.3C13.9259 24.3 13.9391 24.3 13.9505 24.3L13.9997 24.3001C13.9997 24.3001 13.9999 24.3001 13.9999 22.3001C13.9999 24.3001 14.0002 24.3001 14.0002 24.3001L14.0237 24.3001C14.0387 24.3 14.0606 24.3 14.0891 24.3C14.1461 24.2998 14.2293 24.2996 14.3355 24.2991C14.5478 24.2981 14.8523 24.2961 15.2232 24.2921C15.9643 24.2842 16.9743 24.2683 18.0458 24.2365C19.1142 24.2047 20.2599 24.1567 21.2675 24.0831C22.2188 24.0137 23.2185 23.9114 23.8943 23.7302M4.1069 4.06935L4.10636 4.0695ZM4.1069 4.06935C4.78268 3.88848 5.78173 3.78625 6.73251 3.71689C7.74012 3.64338 8.88577 3.59531 9.95412 3.56357C11.0257 3.53174 12.0356 3.51588 12.7767 3.50795C13.1476 3.50398 13.4521 3.502 13.6644 3.501C13.7706 3.5005 13.8538 3.50025 13.9108 3.50013C13.9393 3.50006 13.9612 3.50003 13.9762 3.50002L13.9997 3.5C13.9997 3.5 13.9999 3.5 13.9999 5.5C13.9999 3.5 14.0002 3.5 14.0002 3.5L14.0237 3.50002C14.0387 3.50003 14.0606 3.50006 14.0891 3.50013C14.1461 3.50025 14.2293 3.5005 14.3355 3.501C14.5478 3.502 14.8523 3.50398 15.2232 3.50795C15.9643 3.51588 16.9742 3.53174 18.0458 3.56357C19.1142 3.59531 20.2598 3.64338 21.2674 3.71689C22.2182 3.78624 23.2173 3.88847 23.893 4.06934C23.8933 4.0694 23.8935 4.06946 23.8937 4.06951C23.8939 4.06957 23.8941 4.06963 23.8943 4.06968C25.6177 4.53074 26.97 5.88377 27.4306 7.60689C27.742 8.76996 27.8723 10.4072 27.9346 11.6101C27.9673 12.2417 27.9836 12.8103 27.9918 13.2209C27.9958 13.4267 27.9979 13.5939 27.9989 13.7108C27.9995 13.7693 27.9997 13.8152 27.9999 13.8472C27.9999 13.8632 28 13.8758 28 13.8846L28 13.8997C28 13.8997 28 13.9 26 13.9C28 13.9 28 13.9003 28 13.9003L28 13.9153C28 13.9242 27.9999 13.9367 27.9999 13.9527C27.9997 13.9847 27.9995 14.0307 27.9989 14.0892C27.9979 14.2061 27.9958 14.3733 27.9918 14.579C27.9836 14.9897 27.9673 15.5583 27.9346 16.19C27.8723 17.3933 27.742 19.0313 27.4302 20.1944C26.9694 21.9167 25.6175 23.2693 23.8945 23.7302M17.8351 13.9003L11.6 10.3003V17.5003L17.8351 13.9003Z" fill="white"/>
</svg>
